<?xml version="1.0" encoding="utf-8"?>
<!-- Generator: Adobe Illustrator 17.0.0, SVG Export Plug-In . SVG Version: 6.00 Build 0)  -->
<!DOCTYPE svg PUBLIC "-//W3C//DTD SVG 1.1//EN" "http://www.w3.org/Graphics/SVG/1.1/DTD/svg11.dtd">
<svg version="1.1" id="_x31_" xmlns="http://www.w3.org/2000/svg" xmlns:xlink="http://www.w3.org/1999/xlink" x="0px" y="0px"
	 width="58.217px" height="62.194px" viewBox="426.08 455.195 58.217 62.194" enable-background="new 426.08 455.195 58.217 62.194"
	 xml:space="preserve">
<path fill="#1B5B55" d="M447.514,462.186c2.992-2.591,5.11-4.424,7.615-6.594c2.412,2.058,4.662,3.977,7.454,6.359
	c-6.654,3.58-5.938,8.989-4.473,14.708c2.787,10.879,1.497,21.425-2.984,32.452c-4.02-10.885-5.727-21.125-2.947-31.952
	C453.561,471.775,455.403,465.834,447.514,462.186z"/>
<path fill="#1B5B55" d="M426.453,475.347c5.764-4.799,10.989-9.15,16.462-13.707c0.53,1.345,0.826,1.975,0.781,2
	c-7.011,3.957-6.843,9.33-4.291,16.218c4.435,11.967,7.99,24.26,11.023,36.841C442.562,503.131,434.695,489.563,426.453,475.347z"/>
<path fill="#1B5B55" d="M483.925,475.323c-8.324,14.312-16.839,27.763-24.776,41.41c-0.257-0.117,0.257,0.117,0,0
	c3.809-11.968,7.24-24.154,11.304-36.035c2.303-6.733,5.075-13.167-4.79-17.228c0.727-0.507,1.454-1.014,2.181-1.521
	C473.066,466.293,478.289,470.636,483.925,475.323z"/>
</svg>
