<?xml version="1.0" encoding="utf-8"?>
<!-- Generator: Adobe Illustrator 17.0.0, SVG Export Plug-In . SVG Version: 6.00 Build 0)  -->
<!DOCTYPE svg PUBLIC "-//W3C//DTD SVG 1.1//EN" "http://www.w3.org/Graphics/SVG/1.1/DTD/svg11.dtd">
<svg version="1.1" id="Слой_1" xmlns="http://www.w3.org/2000/svg" xmlns:xlink="http://www.w3.org/1999/xlink" x="0px" y="0px"
	 width="595.28px" height="841.89px" viewBox="0 0 595.28 841.89" enable-background="new 0 0 595.28 841.89" xml:space="preserve">
<g>
	<path display="none" fill="#FFFFFF" d="M-96.997,800.311c0-268.293,0-536.586,0-804.88c259.452,0,518.905,0,778.357,0
		c0,268.293,0,536.586,0,804.88C421.908,800.311,162.455,800.311-96.997,800.311z M214.972,492.948c20.728,0,41.306,0,62.17,0
		c0-29.399,0-58.55,0-88.254c1.128,1.224,1.86,1.995,2.566,2.789c24.757,27.835,49.52,55.664,74.241,83.531
		c1.354,1.526,2.704,2.248,4.834,2.238c19.124-0.091,38.248-0.049,57.372-0.054c0.869,0,1.738-0.08,3.248-0.154
		c-26.251-29.913-52.139-59.412-77.99-88.869c0.298-0.463,0.416-0.71,0.59-0.907c18.086-20.489,36.158-40.991,54.327-61.407
		c0.796-0.894,2.475-1.401,3.747-1.41c14.523-0.095,29.047-0.061,43.571-0.052c0.882,0.001,1.764,0.079,2.99,0.138
		c0,1.424,0,2.659,0,3.895c0.001,48.533,0.018,97.065-0.042,145.598c-0.003,2.375,0.481,3.247,3.086,3.231
		c18.673-0.116,37.346-0.059,56.02-0.066c0.96,0,1.921-0.08,3.106-0.133c0-1.437,0-2.598,0-3.759
		c0.001-47.901,0.001-95.802,0.002-143.703c0-5.209,0-5.206,5.346-5.205c14.885,0.002,29.769,0.001,44.654,0.002
		c1.053,0,2.105,0,3.224,0c0-16.596,0-32.844,0-49.273c-1.31,0-2.382,0-3.454,0c-60.079-0.002-120.159,0.006-180.238-0.047
		c-1.924-0.002-3.125,0.684-4.348,2.072c-31.427,35.663-62.892,71.292-94.355,106.924c-0.682,0.773-1.405,1.51-2.64,2.834
		c0-37.681,0-74.591,0-111.627c-20.843,0-41.362,0-62.026,0C214.972,358.583,214.972,425.733,214.972,492.948z M298.739,719.638
		c77.8-66.459,155.443-132.784,233.534-199.491c-1.383-0.065-2.157-0.132-2.931-0.132c-35.807-0.005-71.614-0.027-107.421,0.076
		c-1.512,0.004-3.306,0.84-4.491,1.849c-35.901,30.582-71.741,61.235-107.594,91.874c-4.235,3.619-8.492,7.212-12.851,10.913
		c-1.266-1.052-2.377-1.951-3.462-2.879c-38.857-33.231-77.716-66.461-116.554-99.714c-1.551-1.328-3.051-2.182-5.258-2.177
		c-34.634,0.076-69.269,0.054-103.903,0.054c-0.864,0-1.728,0-3.349,0C142.895,586.844,220.754,653.187,298.739,719.638z
		 M296.879,158.247c0.839,0.648,1.565,1.161,2.237,1.735c39.506,33.736,78.999,67.487,118.555,101.164
		c1.171,0.997,3.004,1.717,4.531,1.721c35.633,0.094,71.265,0.073,106.898,0.062c0.756,0,1.511-0.13,2.911-0.259
		c-1.241-1.119-1.999-1.835-2.791-2.512c-22.977-19.618-45.964-39.225-68.937-58.848c-53.287-45.514-106.574-91.027-159.817-136.593
		c-1.491-1.276-2.312-1.007-3.583,0.112c-3.857,3.398-7.803,6.693-11.716,10.027c-38.72,32.988-77.441,65.974-116.159,98.964
		c-33.982,28.954-67.957,57.915-101.96,86.844c-0.643,0.547-1.592,0.734-2.398,1.089c0.315,0.352,0.631,0.705,0.946,1.057
		c0.709,0.045,1.418,0.129,2.127,0.129c34.821,0.009,69.642,0.026,104.462-0.046c1.3-0.003,2.871-0.569,3.858-1.41
		c34.178-29.14,68.3-58.347,102.434-87.541C284.567,168.735,290.67,163.543,296.879,158.247z M94.193,367.53
		c0-8.277,0.132-16.023-0.07-23.761c-0.073-2.79,0.759-3.446,3.468-3.435c24.536,0.103,49.072,0.031,73.608,0.105
		c2.358,0.007,3.268-0.465,3.245-3.08c-0.131-14.432-0.118-28.866-0.005-43.298c0.019-2.432-0.726-2.993-3.066-2.989
		c-45.464,0.068-90.927,0.071-136.391-0.003c-2.423-0.004-3.004,0.686-3.002,3.039c0.063,65.309,0.065,130.618,0.009,195.927
		c-0.002,2.385,0.496,3.228,3.091,3.223c45.373-0.082,90.746-0.059,136.119-0.059c0.961,0,1.922,0,2.995,0
		c0-16.578,0-32.763,0-49.366c-26.73,0-53.268,0-79.77,0c0-9.204,0-17.988,0-27.038c1.291,0,2.357,0,3.424,0
		c24.446,0.001,48.892-0.022,73.337,0.042c2.31,0.006,3.293-0.417,3.267-3.075c-0.14-14.432-0.067-28.865-0.067-43.298
		c0-0.875,0-1.749,0-2.934C147.544,367.53,121.061,367.53,94.193,367.53z"/>
	<path d="M205.965,504.059c0-74.595,0-149.117,0-223.812c22.933,0,45.705,0,68.836,0c0,41.102,0,82.065,0,123.883
		c1.371-1.469,2.173-2.287,2.93-3.145c34.917-39.544,69.837-79.085,104.714-118.663c1.358-1.54,2.69-2.301,4.826-2.299
		c66.676,0.059,133.351,0.051,200.027,0.053c1.19,0,2.38,0,3.833,0c0,18.232,0,36.265,0,54.682c-1.241,0-2.409,0-3.578,0
		c-16.519,0-33.037,0-49.556-0.002c-5.933-0.001-5.933-0.004-5.933,5.777c-0.001,53.16-0.001,106.321-0.002,159.481
		c0,1.288,0,2.577,0,4.172c-1.316,0.059-2.381,0.147-3.447,0.147c-20.724,0.008-41.447-0.055-62.17,0.074
		c-2.891,0.018-3.428-0.95-3.425-3.586c0.067-53.861,0.048-107.722,0.047-161.583c0-1.371,0-2.742,0-4.322
		c-1.361-0.065-2.34-0.153-3.318-0.153c-16.118-0.01-32.237-0.048-48.354,0.058c-1.412,0.009-3.276,0.572-4.159,1.565
		c-20.164,22.657-40.22,45.41-60.292,68.149c-0.193,0.219-0.324,0.493-0.655,1.006c28.689,32.691,57.42,65.429,86.553,98.626
		c-1.676,0.082-2.64,0.171-3.605,0.171c-21.224,0.006-42.448-0.041-63.672,0.06c-2.364,0.011-3.863-0.791-5.365-2.484
		c-27.435-30.926-54.917-61.811-82.392-92.702c-0.784-0.881-1.596-1.736-2.848-3.095c0,32.965,0,65.316,0,97.944
		C251.806,504.059,228.968,504.059,205.965,504.059z"/>
	<path d="M298.93,755.638c-86.548-73.746-172.955-147.374-260.004-221.547c1.799,0,2.758,0,3.717,0
		c38.437,0,76.874,0.024,115.311-0.06c2.45-0.005,4.115,0.943,5.835,2.416c43.103,36.904,86.228,73.782,129.352,110.662
		c1.205,1.03,2.438,2.028,3.843,3.195c4.838-4.107,9.562-8.095,14.262-12.111c39.79-34.002,79.564-68.021,119.407-101.961
		c1.315-1.12,3.305-2.047,4.984-2.052c39.738-0.114,79.477-0.089,119.215-0.084c0.859,0,1.718,0.075,3.252,0.147
		C471.439,608.275,385.271,681.882,298.93,755.638z"/>
	<path d="M296.865,132.61c-6.891,5.877-13.664,11.639-20.422,17.419c-37.881,32.399-75.749,64.812-113.68,97.152
		c-1.095,0.933-2.838,1.562-4.281,1.565c-38.644,0.081-77.288,0.061-115.932,0.051c-0.787,0-1.574-0.093-2.361-0.143
		c-0.35-0.391-0.7-0.782-1.05-1.173c0.895-0.394,1.948-0.602,2.661-1.209c37.736-32.105,75.442-64.246,113.155-96.379
		c42.969-36.612,85.942-73.22,128.912-109.83c4.343-3.7,8.723-7.357,13.003-11.128c1.41-1.242,2.322-1.54,3.976-0.125
		C359.934,79.379,419.072,129.889,478.21,180.4c25.496,21.777,51.006,43.537,76.506,65.309c0.879,0.751,1.721,1.546,3.098,2.787
		c-1.554,0.143-2.392,0.287-3.23,0.288c-39.545,0.012-79.09,0.036-118.635-0.068c-1.694-0.004-3.729-0.803-5.029-1.909
		c-43.899-37.374-87.728-74.831-131.572-112.271C298.601,133.898,297.796,133.329,296.865,132.61z"/>
	<path d="M71.925,364.871c29.818,0,59.208,0,88.996,0c0,1.314,0,2.285,0,3.256c0,16.018-0.081,32.036,0.074,48.052
		c0.029,2.949-1.062,3.419-3.626,3.412c-27.13-0.071-54.26-0.046-81.389-0.047c-1.184,0-2.368,0-3.8,0c0,10.044,0,19.792,0,30.007
		c29.412,0,58.863,0,88.529,0c0,18.426,0,36.388,0,54.786c-1.191,0-2.257,0-3.324,0c-50.355,0-100.71-0.026-151.064,0.065
		c-2.88,0.005-3.432-0.931-3.43-3.577c0.062-72.48,0.061-144.959-0.009-217.439c-0.003-2.611,0.642-3.377,3.331-3.372
		c50.455,0.082,100.911,0.078,151.366,0.004c2.597-0.004,3.424,0.619,3.402,3.318c-0.125,16.017-0.139,32.035,0.006,48.052
		c0.026,2.902-0.984,3.426-3.601,3.418c-27.23-0.082-54.46-0.002-81.689-0.116c-3.006-0.013-3.93,0.716-3.849,3.812
		C72.072,347.088,71.925,355.685,71.925,364.871z"/>
</g>
</svg>
