<?xml version="1.0" encoding="utf-8"?>
<!-- Generator: Adobe Illustrator 17.0.0, SVG Export Plug-In . SVG Version: 6.00 Build 0)  -->
<!DOCTYPE svg PUBLIC "-//W3C//DTD SVG 1.1//EN" "http://www.w3.org/Graphics/SVG/1.1/DTD/svg11.dtd">
<svg version="1.1" id="Слой_1" xmlns="http://www.w3.org/2000/svg" xmlns:xlink="http://www.w3.org/1999/xlink" x="0px" y="0px"
	 width="841.89px" height="254.987px" viewBox="0 0 841.89 254.987" enable-background="new 0 0 841.89 254.987"
	 xml:space="preserve">
<g>
	<path display="none" fill="#FFFFFF" d="M3.832,233.235c0-74.418,0-148.836,0-223.254c79.34,0,158.68,0,238.02,0
		c-0.063,0.091-0.11,0.244-0.19,0.263c-7.137,1.739-9.612,8.508-7.812,14.43c1.504,4.951,5.892,8.109,12.049,7.477
		c4.142-0.425,8.329-3.587,9.275-7.448c1.145-4.673,0.283-9.584-3.777-12.375c-1.332-0.916-2.842-1.573-4.271-2.348
		c31.994,0,63.988,0,95.982,0c-0.12,0.107-0.227,0.283-0.363,0.31c-3.651,0.721-7.354,1.236-10.948,2.171
		c-10.523,2.736-19.186,8.391-25.916,16.978c-7.576,9.667-11.033,20.784-11.607,32.902c-0.065,1.375-0.415,1.834-1.815,1.81
		c-4.569-0.076-9.139-0.028-13.709-0.028c-0.791,0-1.582,0-2.349,0c0,5.285,0,10.301,0,15.508c5.853,0,11.616,0,17.563,0
		c0,31.381,0,62.57,0,93.741c6.142,0,12.095,0,18.236,0c0-31.281,0-62.469,0-93.85c6.301,0,12.415,0,18.51,0
		c0-5.209,0-10.225,0-15.432c-6.085,0-12.082,0-18.134,0c-0.271-6.119,0.211-11.996,1.363-17.802
		c1.937-9.769,6.083-18.302,14.115-24.601c4.876-3.824,10.531-5.787,16.532-6.737c3.814-0.604,7.708-0.688,11.545-1.169
		c0.633-0.079,1.357-0.918,1.644-1.577c0.121-0.279-0.679-1.214-1.236-1.475c-0.883-0.415-1.915-0.514-2.884-0.747
		c3.047,0,6.094,0,9.141,0c0,54.452,0,108.904,0,163.358c6.208,0,12.201,0,18.282,0c0-54.537,0-108.948,0-163.358
		c152.217,0,304.434,0,456.678,0c0,77.204,0,154.409,0,231.652c-277.957,0-555.941,0-833.924,0c0-2.071,0-4.18,0-6.289
		c0.567,0.234,1.122,0.634,1.703,0.676c3.993,0.285,7.99,0.543,11.99,0.719c6.28,0.276,12.564,0.489,18.846,0.711
		c3.844,0.136,7.688,0.247,11.533,0.353c4.606,0.127,9.212,0.243,13.818,0.352c5.25,0.124,10.501,0.242,15.751,0.352
		c5.895,0.124,11.79,0.244,17.685,0.351c6.949,0.126,13.899,0.242,20.849,0.352c7.828,0.124,15.657,0.244,23.485,0.351
		c9.176,0.126,18.352,0.245,27.528,0.352c10.816,0.126,21.633,0.247,32.45,0.351c13.336,0.128,26.672,0.25,40.008,0.351
		c17.144,0.13,34.289,0.272,51.433,0.347c32.612,0.143,65.225,0.316,97.837,0.334c22.886,0.013,45.772-0.227,68.659-0.322
		c32.026-0.134,64.053-0.221,96.079-0.363c17.379-0.077,34.758-0.216,52.136-0.348c13.043-0.099,26.086-0.223,39.129-0.35
		c10.875-0.106,21.75-0.224,32.625-0.352c9-0.105,18-0.231,27.001-0.349c8.883-0.116,17.766-0.22,26.649-0.357
		c5.72-0.089,11.438-0.232,17.157-0.345c6.188-0.122,12.376-0.228,18.564-0.356c5.075-0.105,10.149-0.237,15.224-0.347
		c5.719-0.124,11.439-0.217,17.157-0.362c2.615-0.066,5.227-0.243,7.842-0.337c6.868-0.246,13.736-0.467,20.604-0.713
		c2.673-0.096,5.345-0.223,8.016-0.362c0.328-0.017,0.777-0.093,0.944-0.313c0.371-0.488,0.876-1.125,0.804-1.627
		c-0.065-0.455-0.787-1.103-1.279-1.162c-2.811-0.334-5.637-0.591-8.465-0.735c-5.635-0.287-11.274-0.497-16.913-0.714
		c-3.667-0.141-7.337-0.246-11.005-0.354c-4.254-0.125-8.508-0.242-12.763-0.352c-4.782-0.124-9.563-0.243-14.345-0.351
		c-5.543-0.125-11.086-0.244-16.63-0.352c-6.481-0.126-12.962-0.242-19.442-0.352c-7.242-0.123-14.485-0.244-21.728-0.351
		c-8.473-0.126-16.946-0.243-25.419-0.352c-9.703-0.125-19.406-0.246-29.11-0.351c-11.812-0.128-23.625-0.248-35.438-0.351
		c-14.683-0.129-29.367-0.256-44.051-0.35c-21.128-0.135-42.257-0.354-63.386-0.335c-65.658,0.059-131.316,0.194-196.973,0.341
		c-21.07,0.047-42.14,0.21-63.21,0.345c-14.625,0.094-29.25,0.221-43.875,0.35c-11.871,0.104-23.742,0.223-35.614,0.352
		c-9.645,0.104-19.29,0.226-28.934,0.35c-8.532,0.11-17.063,0.226-25.594,0.352c-7.125,0.106-14.251,0.231-21.376,0.349
		c-7.067,0.117-14.134,0.221-21.2,0.357c-4.724,0.091-9.446,0.239-14.169,0.343c-5.777,0.128-11.556,0.22-17.333,0.362
		c-3.201,0.078-6.399,0.235-9.599,0.341c-7.278,0.241-14.557,0.47-21.835,0.707c-3.493,0.114-6.988,0.188-10.476,0.38
		C6.053,232.622,4.946,233.001,3.832,233.235z M633.865,173.383c0-0.768,0-1.403,0-2.039c0-19.511-0.013-39.022,0.015-58.533
		c0.004-2.555,0.225-5.109,0.332-7.664c0.171-4.111,1.093-8.061,2.451-11.931c1.985-5.658,5.25-10.291,10.813-12.853
		c5.069-2.334,10.463-2.672,15.827-1.306c5.33,1.358,8.933,4.791,11.152,9.907c2.457,5.664,2.883,11.654,2.934,17.605
		c0.184,21.56,0.072,43.123,0.072,64.685c0,0.685,0,1.371,0,2.098c6.062,0,11.939,0,17.787,0c0.063-0.221,0.121-0.33,0.121-0.438
		c-0.107-24.878-0.161-49.757-0.389-74.635c-0.034-3.772-0.653-7.581-1.395-11.295c-1.354-6.776-4.724-12.528-10.068-16.917
		c-6.69-5.495-14.622-7.822-23.155-7.986c-3.083-0.059-6.227,0.417-9.263,1.039c-5.834,1.195-11.194,3.569-15.43,7.876
		c-2.601,2.644-4.892,5.592-7.303,8.38c-6.093-10.256-14.899-16.261-27.348-17.114c-12.53-0.858-21.915,4.162-29.501,13.774
		c0-3.836,0-7.673,0-11.459c-6.12,0-12.073,0-18.043,0c0,36.331,0,72.559,0,108.745c6.117,0,12.113,0,18.161,0
		c0-0.845,0-1.547,0-2.249c0-19.921-0.056-39.843,0.047-59.763c0.021-3.972,0.426-7.977,1.053-11.903
		c1.069-6.694,3.913-12.5,9.578-16.594c5.125-3.703,10.89-5.226,17.094-4.195c5.808,0.965,10.017,4.432,12.626,9.69
		c3.18,6.408,3.78,13.406,3.838,20.358c0.175,20.857,0.063,41.717,0.063,62.576c0,0.686,0,1.373,0,2.14
		C621.946,173.383,627.782,173.383,633.865,173.383z M497.77,80.361c-0.642-0.608-1.079-0.967-1.45-1.386
		c-0.418-0.472-0.735-1.037-1.168-1.494c-5.838-6.174-12.511-11.078-20.834-13.353c-5.809-1.588-11.706-2.53-17.756-1.759
		c-3.306,0.421-6.669,0.617-9.897,1.38c-11.032,2.609-20.013,8.47-26.975,17.465c-7.462,9.642-11.073,20.702-11.805,32.693
		c-0.296,4.842,0.205,9.76,0.656,14.614c0.604,6.505,2.604,12.686,5.429,18.544c3.23,6.699,7.502,12.644,13.218,17.542
		c5.563,4.766,11.825,8.153,18.893,9.859c5.772,1.394,11.652,2.421,17.654,1.461c3.284-0.525,6.641-0.792,9.835-1.655
		c9.028-2.437,16.211-7.836,22.423-14.651c0.541-0.594,1.027-1.238,1.538-1.859c0.117,0.062,0.234,0.125,0.352,0.188
		c0,5.132,0,10.264,0,15.386c6.017,0,11.895,0,17.762,0c0-36.319,0-72.507,0-108.747c-5.967,0-11.845,0-17.875,0
		C497.77,69.816,497.77,74.934,497.77,80.361z M812.075,137.911c-1.83,2.615-3.44,5.13-5.266,7.476
		c-3.509,4.509-7.491,8.567-12.652,11.184c-7.55,3.828-15.567,4.463-23.754,2.789c-7.741-1.583-14.072-5.642-18.867-11.9
		c-3.596-4.692-6.032-10.008-7.252-15.812c-0.669-3.182-1.115-6.41-1.702-9.855c28.548,0,56.691,0,85.306,0
		c-0.343-4.82-0.564-9.443-1.026-14.042c-0.642-6.391-2.55-12.486-5.411-18.187c-4.36-8.688-10.617-15.683-19.193-20.563
		c-6.581-3.745-13.652-5.669-21.092-6.215c-3.639-0.267-7.335,0.076-10.995,0.303c-5.68,0.351-11.034,2.007-16.148,4.443
		c-6.348,3.024-11.743,7.257-16.228,12.697c-3.503,4.249-6.301,8.879-8.306,14.002c-2.293,5.858-3.715,11.889-4.271,18.183
		c-0.561,6.353-0.603,12.702,0.556,18.925c0.862,4.628,2.444,9.164,4.101,13.593c2.999,8.02,8.132,14.636,14.806,19.893
		c7.69,6.057,16.529,9.486,26.339,10.436c5.88,0.57,11.741,0.585,17.53-0.455c8.492-1.526,16.164-4.921,22.828-10.563
		c5.764-4.88,10.464-10.581,14.252-17.082c0.511-0.876,0.661-1.573-0.357-2.123C820.883,142.664,816.492,140.295,812.075,137.911z
		 M72.94,176.872c2.932-0.312,5.864-0.622,8.796-0.938c6.343-0.684,12.342-2.638,17.994-5.465
		c6.37-3.185,12.119-7.257,16.811-12.774c3.004-3.532,5.748-7.2,7.862-11.304c3.389-6.578,5.545-13.52,6.426-20.921
		c0.635-5.338,0.633-10.63-0.143-15.89c-0.95-6.436-3.015-12.525-6.192-18.277c-3.553-6.433-8.248-11.824-14.044-16.224
		c-5.865-4.452-12.443-7.464-19.699-9.005c-7.228-1.535-14.441-1.756-21.664-0.173c-6.792,1.488-12.932,4.437-18.161,9.016
		c-5.495,4.812-9.912,10.502-12.622,17.361c-1.157,2.929-2.463,5.873-2.097,9.151c0.066,0.594,0.417,1.514,0.825,1.632
		c0.643,0.186,1.633,0.046,2.131-0.37c0.598-0.5,0.875-1.414,1.219-2.182c1.215-2.709,2.125-5.599,3.656-8.112
		c2.63-4.315,6.437-7.586,10.779-10.119c4.857-2.834,10.158-4.653,15.753-5.084c6.807-0.525,13.424,0.453,19.786,3.252
		c8.363,3.68,14.685,9.486,18.931,17.489c4.482,8.448,5.598,17.446,3.909,26.852c-1.57,8.747-5.341,16.273-11.676,22.576
		c-8.078,8.038-17.985,11.552-29.111,11.971c-2.84,0.107-5.744-0.458-8.563-1.001c-14.147-2.723-24.397-10.848-31.353-23.231
		c-6.164-10.972-7.265-22.846-5.397-35.069c0.878-5.748,2.753-11.237,5.6-16.342c3.31-5.934,7.668-10.978,13.133-15.028
		c2.352-1.743,4.781-3.383,7.19-5.047c1.21-0.836,1.481-2.098,0.915-3.217c-0.509-1.005-1.667-1.053-2.756-0.514
		c-0.765,0.378-1.615,0.582-2.392,0.941c-8.106,3.747-14.833,9.216-20.413,16.175c-4.822,6.015-8.634,12.578-11.196,19.85
		c-2.78,7.89-4.297,15.933-3.566,24.385c0.404,4.672,1.128,9.237,2.462,13.707c2.315,7.751,6.138,14.669,11.366,20.874
		c4.915,5.834,10.72,10.531,17.414,14.066C53.602,174.506,63,176.713,72.94,176.872z M178.919,173.383c0-0.764,0-1.398,0-2.031
		c0-14.291-0.04-28.582,0.015-42.873c0.032-8.235,0.097-16.474,0.38-24.704c0.177-5.155,1.52-10.08,4.154-14.593
		c3.833-6.566,9.851-9.554,17.143-9.833c3.326-0.127,6.738,0.744,9.553,2.886c0.731,0.557,1.276,0.845,1.798-0.155
		c2.705-5.19,5.411-10.38,8.114-15.566c-6.546-3.956-13.596-5.072-20.988-4.102c-5.359,0.703-9.884,3.28-13.68,7.051
		c-2.231,2.216-4.235,4.66-6.571,7.257c0-4.26,0-8.208,0-12.097c-6.161,0-12.154,0-18.111,0c0,36.323,0,72.5,0,108.761
		C166.764,173.383,172.715,173.383,178.919,173.383z M253.336,173.382c0-36.355,0-72.578,0-108.767c-5.997,0-11.873,0-17.724,0
		c0,36.321,0,72.502,0,108.767C241.533,173.382,247.368,173.382,253.336,173.382z"/>
	<path d="M3.832,233.235c1.115-0.234,2.221-0.613,3.345-0.674c3.489-0.191,6.984-0.266,10.476-0.38
		c7.278-0.237,14.557-0.467,21.835-0.707c3.2-0.106,6.399-0.263,9.599-0.341c5.777-0.142,11.555-0.234,17.333-0.362
		c4.723-0.105,9.446-0.252,14.169-0.343c7.066-0.136,14.133-0.24,21.2-0.357c7.125-0.118,14.25-0.243,21.376-0.349
		c8.531-0.127,17.063-0.243,25.594-0.352c9.645-0.124,19.289-0.246,28.934-0.35c11.871-0.128,23.742-0.247,35.614-0.352
		c14.625-0.128,29.25-0.256,43.875-0.35c21.07-0.135,42.14-0.298,63.21-0.345c65.658-0.147,131.315-0.282,196.973-0.341
		c21.128-0.019,42.257,0.2,63.386,0.335c14.684,0.094,29.367,0.221,44.051,0.35c11.813,0.104,23.625,0.224,35.438,0.351
		c9.703,0.105,19.407,0.226,29.11,0.351c8.473,0.109,16.946,0.226,25.419,0.352c7.243,0.107,14.485,0.228,21.728,0.351
		c6.481,0.11,12.962,0.226,19.442,0.352c5.544,0.108,11.087,0.226,16.63,0.352c4.782,0.108,9.563,0.227,14.345,0.351
		c4.255,0.11,8.509,0.227,12.763,0.352c3.669,0.108,7.338,0.213,11.005,0.354c5.638,0.217,11.277,0.427,16.913,0.714
		c2.828,0.144,5.653,0.402,8.465,0.735c0.492,0.058,1.214,0.707,1.279,1.162c0.072,0.502-0.433,1.138-0.804,1.627
		c-0.167,0.22-0.616,0.296-0.944,0.313c-2.671,0.138-5.343,0.266-8.016,0.362c-6.868,0.246-13.736,0.467-20.604,0.713
		c-2.615,0.094-5.227,0.27-7.842,0.337c-5.718,0.145-11.438,0.238-17.157,0.362c-5.075,0.11-10.149,0.242-15.224,0.347
		c-6.188,0.128-12.376,0.234-18.564,0.356c-5.719,0.112-11.438,0.256-17.157,0.345c-8.883,0.137-17.766,0.241-26.649,0.357
		c-9,0.118-18,0.244-27.001,0.349c-10.875,0.127-21.75,0.246-32.625,0.352c-13.043,0.127-26.086,0.251-39.129,0.35
		c-17.379,0.132-34.757,0.271-52.136,0.348c-32.026,0.142-64.053,0.229-96.079,0.363c-22.886,0.096-45.773,0.335-68.659,0.322
		c-32.612-0.018-65.225-0.191-97.837-0.334c-17.145-0.075-34.289-0.217-51.433-0.347c-13.336-0.101-26.672-0.223-40.008-0.351
		c-10.817-0.104-21.633-0.225-32.45-0.351c-9.176-0.107-18.352-0.226-27.528-0.352c-7.829-0.107-15.657-0.227-23.485-0.351
		c-6.95-0.11-13.899-0.226-20.849-0.352c-5.895-0.107-11.79-0.228-17.685-0.351c-5.251-0.11-10.501-0.227-15.751-0.352
		c-4.606-0.109-9.212-0.225-13.818-0.352c-3.845-0.106-7.689-0.217-11.533-0.353c-6.283-0.222-12.566-0.435-18.846-0.711
		c-4-0.176-7.996-0.433-11.99-0.719c-0.581-0.041-1.136-0.442-1.703-0.676C3.832,234.641,3.832,233.938,3.832,233.235z"/>
	<path d="M353.655,9.981c0.969,0.233,2,0.332,2.884,0.747c0.557,0.262,1.358,1.196,1.236,1.475c-0.287,0.66-1.011,1.498-1.644,1.577
		c-3.838,0.481-7.732,0.565-11.545,1.169c-6.002,0.951-11.657,2.913-16.532,6.737c-8.032,6.299-12.177,14.832-14.115,24.601
		c-1.151,5.806-1.634,11.683-1.363,17.802c6.052,0,12.049,0,18.134,0c0,5.208,0,10.223,0,15.432c-6.096,0-12.21,0-18.51,0
		c0,31.381,0,62.569,0,93.85c-6.141,0-12.094,0-18.236,0c0-31.171,0-62.359,0-93.741c-5.947,0-11.709,0-17.563,0
		c0-5.207,0-10.223,0-15.508c0.767,0,1.558,0,2.349,0c4.57,0,9.14-0.048,13.709,0.028c1.4,0.023,1.75-0.435,1.815-1.81
		c0.573-12.118,4.031-23.236,11.607-32.902c6.73-8.587,15.393-14.242,25.916-16.978c3.594-0.935,7.298-1.45,10.948-2.171
		c0.136-0.027,0.243-0.203,0.363-0.31C346.623,9.981,350.139,9.981,353.655,9.981z"/>
	<path d="M381.078,9.981c0,54.41,0,108.821,0,163.358c-6.081,0-12.074,0-18.282,0c0-54.454,0-108.906,0-163.358
		C368.89,9.981,374.984,9.981,381.078,9.981z"/>
	<path d="M247.126,9.981c1.429,0.775,2.939,1.432,4.271,2.348c4.061,2.791,4.922,7.702,3.777,12.375
		c-0.946,3.861-5.133,7.023-9.275,7.448c-6.157,0.631-10.545-2.527-12.049-7.477c-1.799-5.922,0.676-12.691,7.812-14.43
		c0.08-0.019,0.127-0.173,0.19-0.263C243.61,9.981,245.368,9.981,247.126,9.981z"/>
	<path d="M633.865,173.383c-6.084,0-11.92,0-17.931,0c0-0.767,0-1.453,0-2.14c0-20.859,0.112-41.718-0.063-62.576
		c-0.058-6.952-0.659-13.95-3.838-20.358c-2.609-5.259-6.818-8.725-12.626-9.69c-6.204-1.031-11.969,0.492-17.094,4.195
		c-5.665,4.094-8.509,9.9-9.578,16.594c-0.627,3.926-1.032,7.931-1.053,11.903c-0.104,19.921-0.047,39.842-0.047,59.763
		c0,0.702,0,1.404,0,2.249c-6.048,0-12.044,0-18.161,0c0-36.186,0-72.414,0-108.745c5.97,0,11.924,0,18.043,0
		c0,3.786,0,7.623,0,11.459c7.586-9.612,16.971-14.633,29.501-13.774c12.449,0.853,21.255,6.857,27.348,17.114
		c2.41-2.788,4.702-5.736,7.303-8.38c4.237-4.307,9.596-6.681,15.43-7.876c3.036-0.622,6.179-1.098,9.263-1.039
		c8.533,0.163,16.465,2.491,23.155,7.986c5.344,4.39,8.715,10.141,10.068,16.917c0.742,3.714,1.361,7.523,1.395,11.295
		c0.228,24.877,0.282,49.756,0.389,74.635c0,0.108-0.058,0.217-0.121,0.438c-5.848,0-11.725,0-17.787,0c0-0.727,0-1.413,0-2.098
		c0-21.562,0.111-43.125-0.072-64.685c-0.051-5.951-0.477-11.942-2.934-17.605c-2.22-5.116-5.822-8.549-11.152-9.907
		c-5.364-1.367-10.759-1.029-15.827,1.306c-5.563,2.562-8.828,7.196-10.813,12.853c-1.358,3.87-2.28,7.82-2.451,11.931
		c-0.106,2.555-0.328,5.109-0.332,7.664c-0.028,19.511-0.015,39.022-0.015,58.533C633.865,171.979,633.865,172.615,633.865,173.383z
		"/>
	<path d="M497.77,80.361c0-5.427,0-10.545,0-15.773c6.03,0,11.908,0,17.875,0c0,36.24,0,72.428,0,108.747
		c-5.867,0-11.745,0-17.762,0c0-5.122,0-10.254,0-15.386c-0.117-0.062-0.234-0.125-0.352-0.188
		c-0.511,0.621-0.997,1.265-1.538,1.859c-6.212,6.815-13.394,12.214-22.423,14.651c-3.195,0.862-6.551,1.129-9.835,1.655
		c-6.002,0.96-11.881-0.067-17.654-1.461c-7.068-1.707-13.33-5.093-18.893-9.859c-5.716-4.898-9.988-10.843-13.218-17.542
		c-2.825-5.858-4.825-12.039-5.429-18.544c-0.45-4.854-0.952-9.772-0.656-14.614c0.732-11.991,4.343-23.051,11.805-32.693
		c6.961-8.995,15.943-14.856,26.975-17.465c3.227-0.763,6.591-0.959,9.897-1.38c6.05-0.771,11.947,0.171,17.756,1.759
		c8.323,2.275,14.995,7.179,20.834,13.353c0.432,0.457,0.749,1.022,1.168,1.494C496.691,79.393,497.128,79.753,497.77,80.361z
		 M426.292,118.562c0.173,2.608,0.099,5.262,0.569,7.816c1.007,5.474,2.624,10.76,5.468,15.633c2.476,4.243,5.408,8.081,9.39,10.969
		c9.154,6.64,19.376,8.346,30.191,5.588c9.431-2.405,16.514-8.195,21.14-16.775c5.052-9.371,6.75-19.448,5.406-29.959
		c-0.92-7.194-3.31-13.928-7.768-19.77c-4.046-5.302-9.144-9.218-15.485-11.45c-4.872-1.715-9.829-2.435-15.027-2.138
		c-4.566,0.261-8.897,1.282-12.924,3.265c-7.281,3.586-12.607,9.292-16.21,16.495C427.863,104.592,426.068,111.348,426.292,118.562z
		"/>
	<path d="M812.075,137.911c4.416,2.385,8.807,4.753,13.195,7.126c1.018,0.551,0.867,1.247,0.357,2.123
		c-3.788,6.501-8.488,12.202-14.252,17.082c-6.664,5.642-14.336,9.037-22.828,10.563c-5.789,1.04-11.65,1.025-17.53,0.455
		c-9.809-0.95-18.649-4.379-26.339-10.436c-6.673-5.256-11.806-11.873-14.806-19.893c-1.656-4.429-3.239-8.965-4.101-13.593
		c-1.159-6.223-1.117-12.572-0.556-18.925c0.556-6.294,1.978-12.325,4.271-18.183c2.005-5.123,4.804-9.753,8.306-14.002
		c4.485-5.441,9.88-9.674,16.228-12.697c5.115-2.436,10.469-4.092,16.148-4.443c3.66-0.226,7.356-0.57,10.995-0.303
		c7.44,0.546,14.511,2.47,21.092,6.215c8.576,4.88,14.833,11.875,19.193,20.563c2.861,5.701,4.769,11.796,5.411,18.187
		c0.462,4.599,0.683,9.222,1.026,14.042c-28.615,0-56.757,0-85.306,0c0.587,3.444,1.033,6.673,1.702,9.855
		c1.221,5.804,3.657,11.12,7.252,15.812c4.795,6.257,11.126,10.317,18.867,11.9c8.187,1.674,16.205,1.039,23.754-2.789
		c5.161-2.617,9.142-6.675,12.652-11.184C808.635,143.041,810.245,140.525,812.075,137.911z M809.566,107.636
		c-1.831-14.319-14.462-31.038-35.082-29.385c-17.284,1.386-28.964,16.447-30.063,29.385
		C766.135,107.636,787.845,107.636,809.566,107.636z"/>
	<path d="M72.94,176.872c-9.941-0.159-19.338-2.366-28.089-6.988c-6.694-3.535-12.5-8.233-17.414-14.066
		c-5.228-6.205-9.051-13.123-11.366-20.874c-1.335-4.47-2.058-9.035-2.462-13.707c-0.731-8.453,0.786-16.495,3.566-24.385
		c2.562-7.272,6.374-13.835,11.196-19.85c5.58-6.959,12.307-12.428,20.413-16.175c0.776-0.359,1.627-0.562,2.392-0.941
		c1.09-0.539,2.247-0.491,2.756,0.514c0.567,1.118,0.295,2.381-0.915,3.217c-2.409,1.664-4.838,3.304-7.19,5.047
		c-5.465,4.05-9.823,9.094-13.133,15.028c-2.847,5.105-4.722,10.594-5.6,16.342c-1.868,12.224-0.767,24.097,5.397,35.069
		c6.957,12.383,17.206,20.508,31.353,23.231c2.819,0.543,5.723,1.108,8.563,1.001c11.126-0.419,21.033-3.933,29.111-11.971
		c6.335-6.304,10.105-13.829,11.676-22.576c1.689-9.405,0.572-18.404-3.909-26.852c-4.246-8.003-10.567-13.809-18.931-17.489
		c-6.362-2.799-12.979-3.777-19.786-3.252c-5.596,0.432-10.897,2.251-15.753,5.084c-4.342,2.533-8.149,5.804-10.779,10.119
		c-1.532,2.513-2.441,5.403-3.656,8.112c-0.344,0.767-0.621,1.682-1.219,2.182c-0.498,0.416-1.489,0.556-2.131,0.37
		c-0.408-0.118-0.758-1.037-0.825-1.632c-0.366-3.278,0.939-6.221,2.097-9.151c2.71-6.859,7.128-12.549,12.622-17.361
		c5.229-4.579,11.369-7.528,18.161-9.016c7.223-1.583,14.436-1.362,21.664,0.173c7.256,1.541,13.834,4.553,19.699,9.005
		c5.795,4.399,10.491,9.79,14.044,16.224c3.177,5.752,5.242,11.841,6.192,18.277c0.776,5.26,0.778,10.553,0.143,15.89
		c-0.88,7.4-3.036,14.342-6.426,20.921c-2.115,4.104-4.859,7.773-7.862,11.304c-4.693,5.517-10.442,9.589-16.811,12.774
		c-5.652,2.826-11.651,4.781-17.994,5.465C78.804,176.25,75.872,176.56,72.94,176.872z"/>
	<path d="M178.919,173.383c-6.204,0-12.155,0-18.194,0c0-36.261,0-72.439,0-108.761c5.957,0,11.95,0,18.111,0
		c0,3.889,0,7.837,0,12.097c2.336-2.597,4.341-5.041,6.571-7.257c3.796-3.771,8.32-6.348,13.68-7.051
		c7.392-0.97,14.442,0.146,20.988,4.102c-2.703,5.185-5.409,10.375-8.114,15.566c-0.522,1.001-1.066,0.712-1.798,0.155
		c-2.814-2.142-6.227-3.013-9.553-2.886c-7.292,0.279-13.31,3.266-17.143,9.833c-2.634,4.513-3.977,9.438-4.154,14.593
		c-0.283,8.229-0.348,16.468-0.38,24.704c-0.056,14.291-0.015,28.582-0.015,42.873C178.919,171.985,178.919,172.619,178.919,173.383
		z"/>
	<path d="M253.336,173.382c-5.967,0-11.802,0-17.724,0c0-36.265,0-72.446,0-108.767c5.851,0,11.728,0,17.724,0
		C253.336,100.804,253.336,137.027,253.336,173.382z"/>
	<path display="none" fill="#FFFFFF" d="M426.292,118.562c-0.224-7.213,1.571-13.97,4.751-20.327
		c3.603-7.202,8.929-12.909,16.21-16.495c4.027-1.983,8.357-3.004,12.924-3.265c5.198-0.297,10.156,0.423,15.027,2.138
		c6.341,2.233,11.439,6.148,15.485,11.45c4.457,5.842,6.848,12.576,7.768,19.77c1.344,10.511-0.353,20.588-5.406,29.959
		c-4.626,8.581-11.709,14.37-21.14,16.775c-10.815,2.758-21.037,1.052-30.191-5.588c-3.983-2.889-6.914-6.727-9.39-10.969
		c-2.844-4.873-4.462-10.16-5.468-15.633C426.391,123.824,426.465,121.17,426.292,118.562z"/>
	<path display="none" fill="#FFFFFF" d="M809.566,107.636c-21.721,0-43.43,0-65.146,0c1.1-12.938,12.78-27.998,30.063-29.385
		C795.104,76.598,807.734,93.317,809.566,107.636z"/>
</g>
</svg>
