<?xml version="1.0" encoding="utf-8"?>
<!-- Generator: Adobe Illustrator 17.0.0, SVG Export Plug-In . SVG Version: 6.00 Build 0)  -->
<!DOCTYPE svg PUBLIC "-//W3C//DTD SVG 1.1//EN" "http://www.w3.org/Graphics/SVG/1.1/DTD/svg11.dtd">
<svg version="1.1" id="Слой_1" xmlns="http://www.w3.org/2000/svg" xmlns:xlink="http://www.w3.org/1999/xlink" x="0px" y="0px"
	 width="841.89px" height="243.3865px" viewBox="-36 87.14 841.89 243.3865" enable-background="new -36 87.14 841.89 243.3865"
	 xml:space="preserve">
<g enable-background="new    ">
	<path d="M68.2248,124.5194c0.2974,0.8965,0.5601,2.0928,0.7837,3.584c0.2241,1.4941,0.3359,2.6133,0.3359,3.3584
		c0,6.4219-0.71,11.8701-2.1274,16.3486c-1.4204,4.4795-3.9189,8.6602-7.502,12.541c-2.9888,3.2861-7.0547,6.1592-12.2056,8.6221
		c-5.1509,2.4639-10.7144,3.6953-16.6841,3.6953c-3.8838,0-7.6143-0.5947-11.1973-1.792c-3.583-1.1934-6.645-2.9111-9.1821-5.1504
		c-5.8223-5.0742-8.7339-11.9424-8.7339-20.6035c0-6.7188,2.3516-13.3984,7.0547-20.043
		c4.7026-6.6416,11.6802-12.5029,20.939-17.5801C41.799,100.9315,55.4948,96.4911,70.8,94.1747
		c15.3022-2.3125,31.8359-3.4707,49.605-3.4707c4.479,0,9.5913,0.0762,15.3403,0.2236c5.7456,0.1504,11.3442,0.3008,16.7959,0.4482
		c5.4482,0.1504,10.3755,0.3008,14.7808,0.4473c4.4019,0.1504,7.5024,0.2246,9.2939,0.2246c3.583,0,6.4561-0.0742,8.6221-0.2246
		c2.1621-0.1465,4.0308-0.2969,5.5986-0.4473c1.5674-0.1475,2.9111-0.2979,4.0308-0.4482c1.1201-0.1475,2.3516-0.2236,3.6953-0.2236
		c2.3867,0,4.1782,0.6367,5.375,1.9033c1.1929,1.2705,1.7915,2.7256,1.7915,4.3672c0,1.1963-0.2241,2.166-0.6719,2.9111
		c-0.4478,0.749-1.3086,1.3086-2.5757,1.6797c-1.27,0.374-3.0615,0.6367-5.3745,0.7832c-2.3164,0.1514-5.3398,0.3018-9.0698,0.4482
		c-3.8843,0.1504-7.7266,0.2236-11.5337,0.2236s-7.3901-0.0342-10.7495-0.1113c-3.3589-0.0732-6.3472-0.1475-8.9575-0.2246
		c-2.6143-0.0732-4.5913-0.1113-5.9351-0.1113c-4.9268,0-10.1895,1.0459-15.7881,3.1348
		c-5.5986,2.0928-10.7143,5.3018-15.3403,9.6299c-2.6875,2.541-5.375,5.4521-8.0625,8.7344
		c-2.687,3.2852-5.4131,7.0537-8.1738,11.3096c-2.7646,4.2549-5.7109,9.0342-8.8462,14.332
		c-3.1353,5.3018-6.5713,11.1631-10.3013,17.5801c-15.0815,25.9785-29.4878,45.4619-43.2222,58.4502
		c-13.7378,12.9893-28.0708,19.4844-42.998,19.4844c-6.2705,0-11.6104-1.4209-16.0122-4.2559
		c-4.4058-2.834-6.6064-6.2705-6.6064-10.3008c0-2.6875,0.8569-4.9277,2.5752-6.7188c1.7144-1.792,3.9189-2.6875,6.6064-2.6875
		c2.2397,0,4.0312,0.749,5.375,2.2393c1.3433,1.4941,2.0151,3.2861,2.0151,5.375c0,2.0928-0.5596,3.7334-1.6792,4.9268
		c-1.1201,1.1973-2.5757,1.792-4.3672,1.792h-0.896c0.7456,2.2393,2.3516,3.957,4.8149,5.1504
		c2.4634,1.1973,5.6338,1.792,9.5181,1.792c5.3745,0,10.6372-1.5293,15.7881-4.5908c5.1509-3.0586,10.5605-7.7266,16.2363-13.9971
		c3.583-4.0312,7.1665-8.6221,10.7495-13.7725c3.583-5.1514,7.2397-10.6377,10.9736-16.4609
		c3.73-5.8223,7.502-11.8691,11.3091-18.1396s7.7266-12.6143,11.7573-19.0352c5.0737-7.9121,10.5991-15.6768,16.5723-23.291
		c5.9697-7.6143,12.9893-14.1826,21.0513-19.707c3.4326-2.3867,6.9775-4.4404,10.6377-6.1592
		c3.6562-1.7148,7.7993-3.1699,12.4287-4.3672v-0.6719c-5.2275-0.2969-9.8184-0.5205-13.7725-0.6719
		c-3.9575-0.1465-6.3828-0.2236-7.2783-0.2236c-9.4058,0-18.4023,0.0771-26.9858,0.2236
		c-8.5869,0.1514-16.6108,0.6719-24.0747,1.5684c-7.4673,0.8955-14.4829,2.2393-21.0508,4.0312
		c-6.5718,1.791-12.5415,4.332-17.916,7.6143c-6.7183,4.0303-11.9814,8.6221-15.7886,13.7725S4.3996,139.076,4.3996,144.451
		c0,7.3174,2.5371,13.29,7.6143,17.916c2.2393,2.0928,5.0737,3.7334,8.5098,4.9268c3.4331,1.1973,7.1665,1.792,11.1978,1.792
		c5.2241,0,10.0391-0.9307,14.4443-2.7998c4.4023-1.8652,8.1743-4.5137,11.3096-7.9502c2.9849-3.1348,5.2627-6.8301,6.8306-11.085
		c1.5674-4.2549,2.3516-9.4414,2.3516-15.5645c0-1.6416-0.2241-3.2471-0.6719-4.8154c-0.4482-1.5674-0.5249-2.3516-0.2241-2.3516
		H68.2248z M176.6159,184.7616c-5.8228,9.707-11.7573,18.4023-17.8042,26.0898c-6.0464,7.6914-12.0195,14.2217-17.9155,19.5957
		c-5.8999,5.375-11.6455,9.4834-17.2441,12.3174c-5.5986,2.834-10.8613,4.2549-15.7886,4.2549
		c-5.3745,0-9.7065-1.8301-12.9888-5.4863c-3.2856-3.6572-4.9268-8.7695-4.9268-15.3408c0-6.5674,1.7529-14.6299,5.2627-24.1865
		c3.5063-9.5527,9.1436-20.4521,16.9082-32.6963c4.626-7.4639,9.0698-13.8848,13.3247-19.2598
		c4.2549-5.374,8.2861-9.9658,12.0933-13.7725c3.8071-3.8076,7.4253-6.9775,10.8613-9.5176
		c3.4331-2.5371,6.7188-4.7764,9.854-6.7188c2.5366-1.6416,5.0386-2.9463,7.502-3.9189c2.4639-0.9697,4.29-1.4561,5.4868-1.4561
		c1.9385,0,2.9116,0.8223,2.9116,2.4639c0,0.749-0.3013,1.3086-0.896,1.6797c-0.5981,0.374-1.7183,0.71-3.3594,1.0078
		c-2.0923,0.3008-4.0693,0.5977-5.9346,0.8955c-1.8687,0.3008-3.6216,1.1201-5.2627,2.4639
		c-1.1968,0.8955-2.6138,2.0918-4.2549,3.583c-1.6445,1.4941-3.5835,3.5479-5.8228,6.1582
		c-2.2393,2.6143-4.8149,5.8613-7.7261,9.7422c-2.9116,3.8838-6.1587,8.6602-9.7417,14.332
		c-4.1816,6.5713-7.9502,13.29-11.3096,20.1553c-3.3594,6.8691-6.1973,13.4756-8.5103,19.8193
		c-2.3164,6.3477-4.0693,12.2822-5.2627,17.8047c-1.1968,5.5244-1.7915,10.2275-1.7915,14.1084
		c0,4.0312,0.5601,7.4668,1.6797,10.3018c1.1196,2.8379,3.394,4.2549,6.8306,4.2549c3.1353,0,7.0156-1.2666,11.645-3.8066
		c4.626-2.5371,9.6299-6.3057,15.0049-11.3096c5.3745-5.001,11.0469-11.1973,17.02-18.5879
		c5.9692-7.3906,12.0161-16.0127,18.1396-25.8662L176.6159,184.7616z"/>
	<path d="M234.6179,166.3983h14.5566c-5.5254,7.7646-10.8267,15.3057-15.9004,22.6182
		c-5.0771,7.3174-9.5947,14.0742-13.5488,20.2676c-3.9575,6.1973-7.1313,11.6455-9.5176,16.3486
		c-2.3901,4.7031-3.5835,8.3975-3.5835,11.085c0,3.8848,2.0156,5.8232,6.0469,5.8232c3.1353,0,7.1279-1.5293,11.981-4.5908
		c4.8501-3.0586,10.1128-7.2783,15.7886-12.6533c5.6724-5.375,11.4946-11.6455,17.4678-18.8115
		c5.9697-7.167,11.6445-14.7812,17.0195-22.8428l1.3438,0.4473c-4.0312,6.124-8.7715,12.7305-14.2202,19.8193
		c-5.4517,7.0938-11.1621,13.7002-17.1318,19.8203c-5.9731,6.123-11.9463,11.2354-17.916,15.3398
		c-5.9731,4.1084-11.5718,6.1592-16.7959,6.1592c-4.332,0-7.5024-1.085-9.5181-3.248c-2.0156-2.1621-3.0234-4.7373-3.0234-7.7256
		c0-2.0889,0.3359-4.1436,1.0078-6.1592s1.3789-4.0654,2.1274-6.1582l-0.4478-0.2236c-1.9419,2.0918-4.3667,4.5176-7.2783,7.2783
		c-2.9111,2.7637-6.0464,5.3398-9.4058,7.7256c-3.3594,2.3906-6.8306,4.4062-10.4136,6.0469
		c-3.583,1.6416-7.0195,2.4639-10.3018,2.4639c-5.5249,0-9.4058-1.7188-11.645-5.1514c-2.2397-3.4326-3.3594-7.3135-3.3594-11.6455
		c0-6.1201,1.9385-12.877,5.8228-20.2666c3.8804-7.3906,8.8071-14.333,14.7803-20.8271
		c5.9697-6.4951,12.4644-11.9043,19.4839-16.2363c7.0156-4.3291,13.6606-6.4951,19.9312-6.4951
		c2.9849,0,5.5986,0.4131,7.8384,1.2324c2.2393,0.8223,4.1045,1.9414,5.5986,3.3584c1.4907,1.4209,2.6489,3.0234,3.4712,4.8154
		c0.8188,1.791,1.4556,3.6602,1.9033,5.5986h0.4482L234.6179,166.3983z M161.3869,229.1034c0,3.4365,0.7065,6.085,2.1274,7.9502
		c1.417,1.8691,3.394,2.7998,5.9346,2.7998c2.5371,0,5.522-0.9307,8.958-2.7998c3.4326-1.8652,7.0156-4.3672,10.7495-7.502
		c3.73-3.1357,7.4253-6.7539,11.0854-10.8613c3.6567-4.1045,6.9038-8.4717,9.7417-13.1016
		c2.8345-4.626,5.1509-9.3281,6.9424-14.1084c1.7915-4.7764,2.6875-9.3291,2.6875-13.6611c0-3.4326-0.9727-6.0459-2.9116-7.8379
		c-1.9419-1.792-4.332-2.6875-7.166-2.6875c-4.479,0-9.4829,1.9424-15.0049,5.8232c-5.5249,3.8838-10.7495,8.8457-15.6763,14.8926
		c-4.9268,6.0459-9.0698,12.7295-12.4292,20.043C163.0666,215.369,161.3869,222.3856,161.3869,229.1034z"/>
	<path d="M327.5539,122.952c-7.915,12.0938-16.125,23.9629-24.6348,35.6084c-8.5098,11.6445-16.6494,23.5908-24.4102,35.8311
		l0.4482,0.4482c2.2393-2.9854,4.8496-6.2324,7.8379-9.7422c2.9844-3.5059,6.1934-6.792,9.6299-9.8535
		c3.4326-3.0586,7.166-5.5986,11.1973-7.6143s8.1357-3.0234,12.3174-3.0234c4.7764,0,8.8076,1.2705,12.0928,3.8076
		c3.2822,2.54,4.9268,6.9424,4.9268,13.2129c0,3.8838-0.5244,7.5791-1.5674,11.085c-1.0459,3.5098-2.4287,6.7959-4.1436,9.8545
		c-1.7178,3.0615-3.6602,5.8994-5.8223,8.5098c-2.166,2.6133-4.3672,5.0391-6.6064,7.2783l0.4482,0.4473
		c10.749-1.9385,20.4912-5.5986,29.2246-10.9727c8.7344-5.375,17.4297-13.4375,26.0908-24.1865l1.791,0.8955
		c-6.7188,8.2129-12.9893,14.6338-18.8115,19.2598c-5.8223,4.6289-11.1973,8.1006-16.124,10.4131
		c-4.9268,2.3164-9.4834,3.9189-13.6611,4.8154c-4.1816,0.8955-8.1387,1.791-11.8691,2.6875
		c-2.541,1.9414-5.4131,4.2549-8.6221,6.9424c-3.2119,2.6875-6.6064,5.2627-10.1895,7.7256
		c-3.583,2.4639-7.3174,4.5566-11.1973,6.2705c-3.8848,1.7148-7.8389,2.5762-11.8701,2.5762c-2.0918,0-4.1426-0.5605-6.1582-1.6797
		c-2.0156-1.1201-3.0234-2.9463-3.0234-5.4873c0-3.1348,1.5293-5.7451,4.5908-7.8379c3.0586-2.0889,6.792-3.7686,11.1973-5.0391
		c4.4023-1.2666,8.9932-2.2393,13.7734-2.9111c4.7764-0.6719,8.8076-1.1543,12.0928-1.4561
		c1.9385-2.2393,3.9189-4.9619,5.9346-8.1738c2.0156-3.209,3.8428-6.6064,5.4873-10.1895c1.6406-3.583,2.9844-7.2783,4.0312-11.0859
		c1.042-3.8066,1.5674-7.3516,1.5674-10.6367c0-5.2246-0.749-8.6221-2.2393-10.1904c-1.4941-1.5674-3.2861-2.3516-5.375-2.3516
		c-3.4365,0-7.0547,1.2324-10.8613,3.6953c-3.8076,2.4639-7.6533,5.6758-11.5332,9.6299
		c-3.8848,3.958-7.7266,8.3633-11.5342,13.2129c-3.8066,4.8535-7.3545,9.6689-10.6367,14.4453
		c-3.2861,4.7793-6.2705,9.2197-8.9585,13.3242c-2.687,4.1084-4.9268,7.3555-6.7183,9.7422
		c-1.3438,1.9424-3.2856,4.7793-5.8228,8.5098c-2.5366,3.7305-5.3745,7.9854-8.5098,12.7656
		c-3.1353,4.7764-6.4561,9.9268-9.9658,15.4521c-3.5063,5.5215-6.9775,11.085-10.4136,16.6836
		c-3.4326,5.5986-6.7188,11.0088-9.854,16.2358c-3.1353,5.2246-5.896,9.9277-8.2861,14.1094h-13.8848
		c20.1558-32.3989,40.7236-64.5356,61.6978-96.4097c20.9746-31.874,41.6895-64.084,62.1455-96.6338H327.5539z M277.1652,242.5409
		c2.2393,0,4.7383-0.7461,7.502-2.2402c2.7607-1.4902,5.4482-3.2822,8.0625-5.374c2.6104-2.0889,4.9619-4.1787,7.0547-6.2705
		c2.0889-2.0889,3.583-3.6572,4.4785-4.7031l-0.4482-0.4482c-2.54,0.4482-5.71,0.9346-9.5176,1.4561
		c-3.8066,0.5244-7.4668,1.2314-10.9736,2.127c-3.5098,0.8965-6.4941,2.1279-8.958,3.6953
		c-2.4629,1.5684-3.6943,3.6953-3.6943,6.3828c0,1.792,0.6719,3.1348,2.0156,4.0312
		C274.0295,242.0927,275.5207,242.5409,277.1652,242.5409z"/>
	<path d="M425.6393,194.8397c2.9844-3.7305,5.7842-7.166,8.3975-10.3018c2.6104-3.1348,5.3369-5.9697,8.1748-8.5098
		c8.3594-7.6143,16.2705-11.4219,23.7383-11.4219c5.6719,0,10.0771,1.3438,13.2129,4.0312
		c2.9844,2.8379,4.4785,7.0928,4.4785,12.7656c0,6.123-1.4199,12.1699-4.2549,18.1396
		c-2.8379,5.9727-7.4668,12.2432-13.8848,18.8115l0.4482,0.4473c5.6719-1.1924,10.749-2.5752,15.2285-4.1426
		c4.4785-1.5674,8.958-3.7686,13.4365-6.6064c4.1787-2.5371,8.4336-5.6719,12.7656-9.4062
		c4.3281-3.7295,8.958-8.7334,13.8848-15.0039l1.791,0.8955c-5.5254,6.7188-10.5635,12.0586-15.1162,16.0127
		c-4.5557,3.957-8.9961,7.2783-13.3252,9.9658c-2.6875,1.6445-5.3008,3.0225-7.8379,4.1426
		c-2.54,1.1201-5.0771,2.0928-7.6143,2.9111c-2.54,0.8223-5.1504,1.5674-7.8379,2.2393s-5.5986,1.3096-8.7344,1.9043
		c-2.9883,2.2393-6.1582,4.7412-9.5176,7.502c-3.3594,2.7646-6.8311,5.3398-10.4141,7.7266
		c-3.583,2.3896-7.2041,4.3662-10.8613,5.9346c-3.6602,1.5674-7.3555,2.3516-11.0845,2.3516c-6.124,0-9.1826-2.5371-9.1826-7.6143
		c0-2.5371,1.4561-4.9619,4.3672-7.2783c2.9111-2.3135,7.5757-4.29,13.9966-5.9346c2.9844-0.7461,6.4941-1.418,10.5254-2.0156
		c4.0312-0.5957,8.2861-1.1201,12.7646-1.5684c6.1201-7.7607,10.4873-15.1514,13.1016-22.1709
		c2.6104-7.0156,3.9189-13.6602,3.9189-19.9307c0-3.7305-0.749-6.418-2.2393-8.0625c-1.4941-1.6406-3.3594-2.4639-5.5986-2.4639
		c-2.9883,0-6.1592,0.9736-9.5186,2.9121c-3.3584,1.9414-6.7568,4.5557-10.1895,7.8379
		c-3.4355,3.2861-7.3555,7.6523-11.7568,13.1006c-4.4053,5.4521-8.7725,11.2363-13.1011,17.3564
		c-4.332,6.123-8.4746,12.1318-12.4287,18.0273c-3.958,5.9004-7.502,11.2744-10.6377,16.125
		c-3.1348,4.8496-5.8223,8.9922-8.0615,12.4287c-2.2402,3.4326-3.8076,5.8223-4.7031,7.166
		c-1.1973,1.792-2.5752,3.9541-4.1436,6.4951c-1.5674,2.5371-3.2471,5.1855-5.0391,7.9502c-1.791,2.7607-3.583,5.6338-5.374,8.6221
		c-1.792,2.9844-3.583,5.8955-5.375,8.7334c-4.0312,6.7192-8.2129,13.7349-12.541,21.0513h-13.8848l44.7891-70.3198
		c2.3867-3.4326,5.2979-7.5371,8.7344-12.3174c3.4326-4.7764,6.792-9.3281,10.0781-13.6602l-0.6719-0.4482
		c-4.4795,5.375-8.5488,9.7422-12.2051,13.1016c-3.6602,3.3584-7.0938,5.9727-10.3018,7.8379
		c-3.2129,1.8682-6.3096,3.1738-9.2939,3.9189c-2.9883,0.7451-6.0469,1.1201-9.1816,1.1201c-3.7344,0-7.2051-1.4209-10.4141-4.2559
		c-3.209-2.834-4.8145-7.0889-4.8145-12.7646c0-6.2705,1.9414-12.9121,5.8223-19.9316c3.8809-7.0156,9.4795-14.1084,16.7959-21.2744
		c3.583-3.4336,7.2783-6.5303,11.0859-9.2939c3.8066-2.7607,7.5752-5.1123,11.3086-7.0547c3.7305-1.9385,7.3135-3.4326,10.75-4.4785
		c3.4326-1.043,6.418-1.5684,8.958-1.5684c4.7764,0,8.583,1.4209,11.4209,4.2549c2.835,2.8379,4.4019,6.3477,4.7026,10.5264h0.4482
		l35.6074-56.2109l15.0049-0.4482l-19.2598,28.665c-5.2275,6.7188-10.2666,13.6611-15.1162,20.8271
		c-4.8535,7.167-9.7422,14.5566-14.6689,22.1709L425.6393,194.8397z M405.7082,167.2938c-2.9883,0-6.8691,1.2705-11.6455,3.8076
		c-4.7793,2.54-10.0039,7.0186-15.6758,13.4365c-3.7344,4.1816-7.0195,8.4746-9.8545,12.877
		c-2.8379,4.4053-5.1895,8.6602-7.0537,12.7656c-1.8691,4.1074-3.2861,7.9492-4.2549,11.5332
		c-0.9736,3.583-1.4561,6.5713-1.4561,8.958c0,7.3164,3.0586,10.9727,9.1816,10.9727c3.4326,0,7.3135-1.5674,11.6455-4.7021
		c4.3281-3.1357,9.2549-7.6143,14.7803-13.4375c3.7305-3.8799,7.0898-7.9502,10.0781-12.2051
		c2.9844-4.2549,5.5596-8.3594,7.7256-12.3174c2.1631-3.9541,3.8428-7.6875,5.0391-11.1973c1.1934-3.5059,1.792-6.5293,1.792-9.0693
		c0-4.3291-0.8955-7.3135-2.6875-8.958C411.5305,168.1161,408.9904,167.2938,405.7082,167.2938z M423.3991,242.5409
		c3.1357,0,7.0547-1.4912,11.7578-4.4795c4.7031-2.9844,9.9658-7.6875,15.7881-14.1084l-0.4473-0.4482
		c-4.0312,0.5986-7.9502,1.1973-11.7578,1.792c-3.8066,0.5986-6.9805,1.2705-9.5176,2.0156
		c-4.332,1.1963-7.3906,2.5752-9.1812,4.1426c-1.792,1.5674-2.6875,3.5488-2.6875,5.9346c0,1.4941,0.5947,2.7266,1.791,3.6953
		C420.3381,242.0575,421.7546,242.5409,423.3991,242.5409z"/>
	<path d="M529.1022,166.3983h14.1094l-22.1709,33.5918h24.8584c0.5947-0.7451,1.1924-1.5674,1.791-2.4629
		c3.2822-4.626,6.9043-8.9199,10.8613-12.877c3.9541-3.9541,7.7998-7.2012,11.5332-9.7422
		c5.8232-3.8809,11.0859-6.5674,15.7891-8.0615c4.7031-1.4912,9.2168-2.2402,13.5488-2.2402c3.4326,0,6.5293,0.5986,9.2939,1.792
		c2.7607,1.1963,5.1855,3.4365,7.2783,6.7188c0.7451,1.3428,1.3438,2.6865,1.791,4.0303c0.4482,1.3438,0.8193,2.541,1.1201,3.584
		c0.2969,1.3428,0.3711,2.54,0.2236,3.583c1.043,4.7793,3.1357,8.2119,6.2705,10.3018c3.1357,2.0918,6.792,3.1348,10.9736,3.1348
		c4.626,0,8.8076-1.1543,12.541-3.4707c3.7305-2.3135,7.3135-5.1865,10.75-8.6221l1.791,1.3438
		c-3.4355,3.583-7.3555,6.6445-11.7568,9.1816c-4.4053,2.54-8.9971,3.8066-13.7734,3.8066c-2.54,0-4.7793-0.3359-6.7178-1.0078
		c-1.9424-0.6719-3.6221-1.5283-5.0391-2.5752c-1.4209-1.043-2.6143-2.0889-3.583-3.1348c-0.9727-1.043-1.6797-1.9385-2.1279-2.6875
		h-0.4473c-1.1973,4.6289-3.8076,10.4131-7.8389,17.3555c-4.0303,6.9424-9.332,13.4756-15.9004,19.5957
		c-7.166,6.5713-13.9961,11.1621-20.4912,13.7725c-6.4941,2.6104-12.3555,3.9199-17.5801,3.9199
		c-6.123,0-10.8994-1.7568-14.332-5.2637c-3.4365-3.5059-5.1514-8.6953-5.1514-15.5635c0-4.0312,1.043-8.3604,3.1357-12.9893
		c1.1934-2.9854,2.6875-5.8965,4.4785-8.7344h-24.8584l-25.9775,40.7588H479.61L529.1022,166.3983z M607.0368,178.9393
		c0-3.8809-0.8613-6.792-2.5752-8.7344c-1.7188-1.9385-3.9199-2.9111-6.6064-2.9111c-3.7344,0-7.9502,1.3828-12.6533,4.1436
		c-4.7031,2.7637-9.2207,6.6064-13.5488,11.5332c-8.6611,9.8535-14.6338,18.7383-17.916,26.6494
		c-3.2861,7.915-4.9268,14.6338-4.9268,20.1553c0,4.0312,0.7451,7.167,2.2393,9.4062c1.4902,2.2393,3.7305,3.3594,6.7188,3.3594
		c1.6406,0,3.6182-0.2979,5.9346-0.8965c2.3125-0.5947,4.8145-1.6797,7.502-3.2471s5.5986-3.7295,8.7344-6.4941
		c3.1348-2.7607,6.3438-6.3828,9.6299-10.8613c6.2705-8.3604,10.749-16.3486,13.4365-23.9629S607.0368,183.4178,607.0368,178.9393z"
		/>
	<path d="M773.8786,166.3983c-4.9277,6.7188-9.4062,12.877-13.4375,18.4756s-7.7646,10.7148-11.1973,15.3408
		c-7.0195,9.7061-11.9814,17.3203-14.8926,22.8428c-2.9111,5.5244-4.3672,9.7803-4.3672,12.7646
		c0,4.4785,2.2393,6.7188,6.7188,6.7188c2.834,0,7.166-1.7529,12.9893-5.2627c5.8223-3.5068,12.9883-9.7422,21.499-18.7002
		c4.1777-4.4785,8.6562-9.5527,13.4365-15.2285c4.7764-5.6719,9.7031-12.0156,14.7803-19.0352l2.2402,0.6719
		c-10.3018,14.332-19.8584,26.0547-28.666,35.1592c-5.0771,5.2285-9.5557,9.4834-13.4365,12.7656
		c-3.8838,3.2852-7.3906,5.8223-10.5254,7.6143c-3.1357,1.791-5.9736,3.0234-8.5107,3.6953c-2.54,0.6719-4.9268,1.0078-7.166,1.0078
		c-3.9189,0-7.1035-1.2324-9.5459-3.6953c-2.4453-2.4639-3.667-5.6338-3.667-9.5176c0-2.0898,0.3047-4.1436,0.917-6.1592
		c0.6084-2.0156,1.7529-4.5137,3.4258-7.502l-0.4482-0.2246c-2.9922,3.2861-5.9834,6.3828-8.9717,9.2939
		c-2.9922,2.9121-6.0576,5.5645-9.1963,7.9502c-3.8906,2.9883-7.7783,5.375-11.666,7.167
		c-3.8877,1.791-7.7754,2.6875-11.6631,2.6875c-3.5898,0-6.582-1.1201-8.9756-3.3594c-2.3926-2.2393-3.5859-5.4482-3.5859-9.6299
		c0-2.0889,0.4824-4.29,1.4551-6.6064c0.9697-2.3135,2.1279-4.4404,3.4717-6.3828l-0.4482-0.2236
		c-3.8838,4.332-7.4668,8.1387-10.749,11.4209c-3.2861,3.2861-6.4219,6.0117-9.4062,8.1748
		c-2.9883,2.166-5.8994,3.8066-8.7344,4.9268c-2.8379,1.1191-5.6748,1.6797-8.5098,1.6797c-5.2246,0-9.2549-1.5684-12.0928-4.7031
		c-1.4912-1.6416-2.6104-3.583-3.3594-5.8232c-0.7451-2.2393-1.1201-4.626-1.1201-7.166c0-4.0312,1.1201-7.5371,3.3594-10.5254
		c2.2393-2.9854,5.0039-4.4795,8.2861-4.4795c2.5371,0,4.4404,0.7109,5.7109,2.1279c1.2666,1.4209,1.9033,3.1006,1.9033,5.0391
		c0,4.7793-2.3896,7.166-7.166,7.166c-1.043,0-2.0508-0.2588-3.0234-0.7842c-0.9697-0.5205-1.6025-1.3047-1.9033-2.3506
		c-1.1934,1.1963-1.9385,2.3896-2.2402,3.583c-0.2969,1.1963-0.4473,2.2393-0.4473,3.1348c0,1.3438,0.2617,2.7998,0.7832,4.3672
		c0.5254,1.5674,1.3086,2.9502,2.3516,4.1436c2.2432,2.3896,5.1582,3.583,8.7451,3.583c6.876,0,14.3887-3.8076,22.5342-11.4219
		c8.1465-7.6143,17.8252-19.0352,29.0361-34.2637c3.4365-4.4795,6.873-9.1436,10.3125-13.9971
		c3.4365-4.8496,7.1738-10.1123,11.2109-15.7881l15.2461-0.6719c-5.8359,7.915-10.9629,14.7803-15.3789,20.6035
		c-4.416,5.8223-8.2715,11.0498-11.5645,15.6758c-3.4434,4.9268-6.3262,9.1084-8.6465,12.541
		c-2.3203,3.4365-4.1533,6.3828-5.501,8.8467c-1.3467,2.4629-2.3193,4.5908-2.918,6.3818c-0.5986,1.792-0.8955,3.4365-0.8955,4.9268
		c0,2.0928,0.6367,3.6602,1.9102,4.7031c1.2734,1.0469,2.8135,1.5674,4.6123,1.5674c2.998,0,6.2246-0.8955,9.6748-2.6865
		c3.4502-1.792,7.1982-4.4023,11.2461-7.8389c3.4502-2.9844,7.0479-6.4561,10.7988-10.4131
		c3.748-3.9541,7.6455-8.3213,11.6982-13.1016c4.7764-5.6719,9.4785-12.0547,14.1084-19.1475
		c4.626-7.0889,9.3291-14.4443,14.1084-22.0586H773.8786z"/>
</g>
<g enable-background="new    ">
	<path d="M556.53,280.2152v5.4492h-21.7217v13.5107c1.5674-0.2236,4.5527-0.373,6.1953-0.373c4.7773,0,9.4795,1.0449,12.9883,3.3594
		c3.8066,2.4629,6.4199,6.4189,6.4199,12.3164c0,4.7031-1.5684,8.2852-4.1807,10.8984c-4.1055,4.0303-10.8984,5.5986-17.7656,5.5986
		c-4.5537,0-7.9873-0.2988-10.1523-0.5977v-50.1621H556.53z M534.8083,325.5258c1.4922,0.2979,3.209,0.373,5.4482,0.373
		c4.0312,0,8.1367-1.2695,10.6006-3.8818c1.7168-1.791,2.7617-4.2549,2.7617-7.3896c0-3.8818-1.6426-6.4941-4.1055-8.2109
		c-2.6133-1.792-5.9717-2.5381-9.5547-2.5381c-1.4932,0-3.5088,0.1494-5.1504,0.2988V325.5258z"/>
	<path d="M575.1921,294.3978v12.3164c1.4189-0.2979,3.5088-0.4473,5.8975-0.4473c7.7627,0,15.6006,3.21,15.6006,12.0928
		c0,3.8066-1.418,6.4189-3.7324,8.3604c-3.9561,3.3584-9.7783,4.1797-14.5557,4.1797c-3.6572,0-7.0166-0.2236-9.7041-0.5225
		v-35.9795H575.1921z M575.1921,325.973c1.2695,0.1494,2.6875,0.2988,4.5537,0.2988c5.001,0,10.4502-2.0898,10.4502-7.6885
		c0-5.8223-5.2246-7.6143-10.1514-7.6143c-1.8662,0-3.5088,0.1494-4.8525,0.374V325.973z M607.738,294.3978v36.1289h-6.4941
		v-36.1289H607.738z"/>
	<path d="M642.6745,294.3978v5.2256H631.403v30.9033h-6.4941v-30.9033h-11.2715v-5.2256H642.6745z"/>
	<path d="M676.7145,330.5267l-6.4199-11.1221c-2.6123-4.2549-4.2549-7.0166-5.8223-9.9277h-0.1494
		c-1.418,2.9111-2.8359,5.5977-5.4492,10.002l-6.0459,11.0479h-7.4648l15.377-25.4541l-14.7793-24.8574h7.5391l6.6436,11.7939
		c1.8662,3.2852,3.2842,5.8223,4.6279,8.5098h0.2236c1.4189-2.9854,2.6875-5.2998,4.5537-8.5098l6.8672-11.7939h7.4648
		l-15.3027,24.4844l15.6758,25.8271H676.7145z"/>
	<path d="M697.6179,294.3978v15.2285c0,5.7471-0.0752,9.3301-0.374,14.4805l0.2246,0.0752
		c2.1641-4.4043,3.4336-6.9424,5.8223-11.1221l11.2715-18.6621h7.6885v36.1289h-6.2705V315.224
		c0-5.8965,0.1494-8.957,0.4482-14.7793h-0.2236c-2.3145,4.6279-3.8818,7.5391-5.9717,11.1963
		c-3.4346,5.5986-7.3906,12.541-11.2725,18.8857h-7.5391v-36.1289H697.6179z"/>
	<path d="M733.2985,294.3978h8.0625l6.5684,18.2139c0.8955,2.6875,2.4639,7.0918,3.2842,9.9277h0.1494
		c0.8213-2.6875,2.8369-8.4346,4.2549-12.3906l5.8223-15.751h8.1367l2.5381,36.1289h-6.2705l-0.8213-17.2432
		c-0.2236-3.8818-0.5225-8.5098-0.6719-12.9141h-0.2236c-0.9707,3.2842-1.9404,6.1963-3.9561,11.7197l-6.9424,18.2139h-4.7773
		l-6.4189-17.8408c-1.1201-3.4336-2.6875-8.6592-3.583-12.0176h-0.2988c-0.1494,4.2549-0.373,9.0322-0.5977,12.9883l-0.8955,17.0938
		h-6.0459L733.2985,294.3978z"/>
</g>
</svg>
