<?xml version="1.0" encoding="utf-8"?>
<!-- Generator: Adobe Illustrator 17.0.0, SVG Export Plug-In . SVG Version: 6.00 Build 0)  -->
<!DOCTYPE svg PUBLIC "-//W3C//DTD SVG 1.1//EN" "http://www.w3.org/Graphics/SVG/1.1/DTD/svg11.dtd">
<svg version="1.1" id="Слой_1" xmlns="http://www.w3.org/2000/svg" xmlns:xlink="http://www.w3.org/1999/xlink" x="0px" y="0px"
	 width="810px" height="548px" viewBox="19.445 1.14 810 548" enable-background="new 19.445 1.14 810 548" xml:space="preserve">
<g enable-background="new    ">
	<path d="M24.9855,62.4628c10.9321-1.8604,26.2842-3.2559,47.9165-3.2559c21.8647,0,37.4492,4.1865,47.9165,12.5605
		c10.0019,7.9082,16.7476,20.9346,16.7476,36.2861s-5.1172,28.3779-14.4214,37.2168
		c-12.0952,11.3975-30.0059,16.5146-50.9404,16.5146c-4.6523,0-8.8389-0.2324-12.0957-0.6973v56.0576h-35.123V62.4628z
		 M60.1086,133.6405c3.0239,0.6973,6.7456,0.9297,11.8628,0.9297c18.8413,0,30.4717-9.5361,30.4717-25.5859
		c0-14.4219-10.002-23.0283-27.6802-23.0283c-7.2109,0-12.0952,0.6982-14.6543,1.3955V133.6405z"/>
	<path d="M160.1291,62.4628c11.3975-1.8604,28.3774-3.2559,47.2188-3.2559c23.2603,0,39.543,3.4893,50.708,12.3281
		c9.3042,7.4434,14.4214,18.375,14.4214,32.7969c0,20.0039-14.189,33.7275-27.6802,38.6123v0.6982
		c10.9326,4.4189,16.9805,14.8867,20.9346,29.3076c4.8848,17.6787,9.7695,38.1475,12.7935,44.1953h-36.2866
		c-2.5586-4.4199-6.2803-17.2129-10.9321-36.5186c-4.187-19.5391-10.9326-24.8896-25.354-25.1221h-10.7002v61.6406h-35.123V62.4628z
		 M195.2521,129.9188h13.9565c17.6777,0,28.145-8.8389,28.145-22.5625c0-14.4219-9.769-21.6328-26.0518-21.8652
		c-8.6064,0-13.4907,0.6973-16.0498,1.1631V129.9188z"/>
	<path d="M333.6511,60.37v156.7754h-35.5889V60.37H333.6511z"/>
	<path d="M364.3522,217.1454V60.37h41.4043l32.5645,57.4531c9.3047,16.5146,18.6084,36.0537,25.5869,53.7314h0.6973
		c-2.3262-20.7012-3.0234-41.8682-3.0234-65.3613V60.37h32.5645v156.7754h-37.2168l-33.4951-60.4775
		c-9.3047-16.7471-19.5391-36.9844-27.2148-55.3594l-0.6973,0.2324c0.9297,20.7021,1.3955,42.7988,1.3955,68.3857v47.2188H364.3522z
		"/>
	<path d="M555.0876,90.1434H512.986V60.37h120.4893v29.7734h-42.7998v127.002h-35.5879V90.1434z"/>
</g>
<g enable-background="new    ">
	<path d="M24.9855,339.4984h35.5884v127.002h62.3384v29.7734H24.9855V339.4984z"/>
	<path d="M171.9919,339.4984v90.25c0,26.9824,10.2344,40.7061,28.3779,40.7061c18.6084,0,28.8428-13.0254,28.8428-40.7061v-90.25
		h35.356v87.9238c0,48.3828-24.4233,71.4102-65.3618,71.4102c-39.543,0-62.8037-21.8652-62.8037-71.875v-87.459H171.9919z"/>
	<path d="M377.8464,496.2738l-14.1885-28.3779c-5.8154-10.9326-9.5371-19.0732-13.9561-28.1455h-0.4658
		c-3.2559,9.0723-7.21,17.2129-12.0947,28.1455l-13.0264,28.3779h-40.4731l45.3579-79.3184l-43.7295-77.457h40.7061l13.7236,28.6104
		c4.6514,9.5361,8.1406,17.2129,11.8623,26.0518h0.4658c3.7217-10.002,6.7451-16.9805,10.6992-26.0518l13.2588-28.6104h40.4736
		l-44.1953,76.5264l46.5205,80.249H377.8464z"/>
</g>
<g>
	<path d="M765.436,264.25V127.448h-51.584v-67.53h110.77V264.25"/>
</g>
<g>
	<path d="M824.621,292.371v204.332h-110.77v-67.529h51.584V292.371"/>
</g>
</svg>
