<?xml version="1.0" encoding="utf-8"?>
<!-- Generator: Adobe Illustrator 17.0.0, SVG Export Plug-In . SVG Version: 6.00 Build 0)  -->
<!DOCTYPE svg PUBLIC "-//W3C//DTD SVG 1.1//EN" "http://www.w3.org/Graphics/SVG/1.1/DTD/svg11.dtd">
<svg version="1.1" id="Слой_1" xmlns="http://www.w3.org/2000/svg" xmlns:xlink="http://www.w3.org/1999/xlink" x="0px" y="0px"
	 width="600.739px" height="590.976px" viewBox="0 0 600.739 590.976" enable-background="new 0 0 600.739 590.976"
	 xml:space="preserve">
<g>
	<path fill="#FFFFFF" d="M52.959,590.976c-4.168,0-8.336,0-12.504,0c-1.55-0.26-3.105-0.489-4.648-0.784
		c-9.067-1.734-18.169-3.313-27.179-5.307c-3.791-0.839-4.491-2.804-2.926-6.537c0.791-1.887,1.848-3.767,3.189-5.297
		c2.818-3.215,5.731-6.387,8.906-9.242c14.833-13.339,30.536-25.739,43.548-41.023c13.915-16.345,24.328-34.432,28.773-55.692
		c0.601-2.875-0.028-4.506-2.053-6.324c-24.273-21.791-44.28-46.942-59.397-75.902C11.411,351.812,1.754,316.734,0.684,279.375
		c-0.059-2.057-0.448-4.104-0.684-6.156c0-1.471,0-2.942,0-4.413c0.254-2.666,0.665-5.328,0.737-7.998
		c0.454-16.798,2.992-33.3,7.169-49.544c13.55-52.694,41.705-96.452,82.415-132.06C144.4,31.903,208.151,7.698,279.393,2.839
		c15.698-1.071,31.573-0.132,47.34,0.532c19.808,0.834,39.251,4.483,58.376,9.601c58.98,15.782,109.906,45.113,150.586,91.045
		c38.932,43.959,61.199,95.045,64.636,154.056c1.45,24.894-0.963,49.354-7.21,73.371c-15.015,57.724-47.251,104.32-93.724,141.03
		c-57.194,45.178-123.056,66.202-195.487,67.578c-19.954,0.379-39.831-1.306-59.477-5.006c-4.612-0.869-8.634-0.411-12.974,1.683
		c-29.251,14.118-59.296,26.331-90.257,36.183c-24.54,7.809-49.399,14.307-75.169,16.633
		C61.668,589.939,57.317,590.495,52.959,590.976z M226.273,285.663c-0.448,4.895-0.74,9.269-1.267,13.615
		c-1.676,13.816-6.258,26.557-14.397,37.921c-6.965,9.726-15.916,17.245-26.262,23.117c-2.547,1.446-3.562,3.237-3.523,6.187
		c0.144,10.908,0.046,21.82,0.065,32.73c0.008,4.602,0.792,5.532,5.451,4.937c5.307-0.679,10.61-1.639,15.8-2.937
		c30.858-7.715,53.525-25.421,66.166-55.025c7.987-18.704,10.955-38.494,11.166-58.632c0.336-32.115,0.107-64.235,0.111-96.354
		c0.001-5.127-0.518-5.629-5.726-5.629c-29.054-0.003-58.107-0.003-87.161,0c-5.362,0.001-5.81,0.451-5.811,5.913
		c-0.004,28.931-0.002,57.862-0.002,86.793c0,6.842,0.488,7.355,7.222,7.361C200.593,285.671,213.08,285.663,226.273,285.663z
		 M389.57,285.669c-0.214,3.879-0.33,7.177-0.602,10.461c-0.171,2.063-0.534,4.115-0.884,6.159
		c-4.395,25.674-17.715,45.164-40.43,58.058c-2.574,1.461-3.525,3.302-3.492,6.212c0.123,10.781,0.041,21.564,0.054,32.346
		c0.006,4.99,1.522,6.449,6.213,5.129c9.602-2.701,19.344-5.137,28.614-8.745c26.824-10.439,45.834-28.902,55.547-56.344
		c5.512-15.572,7.898-31.782,8.099-48.162c0.412-33.567,0.15-67.142,0.207-100.713c0.006-3.269-1.367-4.528-4.668-4.52
		c-29.773,0.073-59.547,0.078-89.32-0.004c-3.588-0.01-4.744,1.577-4.74,4.885c0.037,30.019,0.011,60.037,0.033,90.056
		c0.003,3.955,1.257,5.152,5.373,5.165c11.885,0.036,23.77,0.016,35.655,0.017C386.554,285.669,387.877,285.669,389.57,285.669z"/>
	<path display="none" fill="#FFFFFF" d="M52.959,590.976c4.358-0.481,8.708-1.037,13.074-1.431
		c25.77-2.326,50.629-8.823,75.169-16.633c30.961-9.852,61.005-22.066,90.257-36.183c4.34-2.095,8.362-2.552,12.974-1.683
		c19.646,3.7,39.523,5.385,59.477,5.006c72.431-1.376,138.294-22.4,195.487-67.578c46.473-36.71,78.709-83.306,93.724-141.03
		c6.247-24.017,8.66-48.477,7.21-73.371c-3.437-59.012-25.704-110.097-64.636-154.056c-40.679-45.932-91.606-75.263-150.586-91.045
		c-19.126-5.118-38.568-8.766-58.376-9.601c-15.766-0.664-31.641-1.602-47.34-0.532C208.151,7.698,144.4,31.903,90.321,79.204
		c-40.71,35.608-68.865,79.366-82.415,132.06c-4.177,16.244-6.715,32.745-7.169,49.544c-0.072,2.671-0.483,5.332-0.737,7.998
		c0-89.23,0-178.46,0-267.715c200.507,0,401.013,0,601.599,0c0,196.523,0,393.071,0,589.885
		C418.772,590.976,235.866,590.976,52.959,590.976z"/>
	<path display="none" fill="#FFFFFF" d="M0,273.219c0.236,2.052,0.625,4.099,0.684,6.156c1.07,37.359,10.727,72.437,27.983,105.494
		c15.116,28.96,35.123,54.11,59.397,75.902c2.025,1.818,2.654,3.449,2.053,6.324c-4.445,21.259-14.858,39.347-28.773,55.692
		c-13.012,15.284-28.714,27.684-43.548,41.023c-3.175,2.855-6.088,6.027-8.906,9.242c-1.34,1.53-2.398,3.41-3.189,5.297
		c-1.565,3.733-0.865,5.699,2.926,6.537c9.01,1.993,18.112,3.573,27.179,5.307c1.543,0.295,3.098,0.524,4.648,0.784
		c-13.485,0-26.97,0-40.455,0C0,485.057,0,379.138,0,273.219z"/>
	<path display="none" fill="#FFFFFF" d="M226.273,285.663c-13.192,0-25.68,0.007-38.167-0.003c-6.734-0.006-7.222-0.518-7.222-7.361
		c0-28.931-0.003-57.862,0.002-86.793c0.001-5.461,0.449-5.912,5.811-5.913c29.053-0.003,58.107-0.003,87.161,0
		c5.208,0,5.727,0.502,5.726,5.629c-0.003,32.118,0.226,64.239-0.111,96.354c-0.211,20.138-3.179,39.928-11.166,58.632
		c-12.641,29.604-35.308,47.31-66.166,55.025c-5.19,1.298-10.493,2.258-15.8,2.937c-4.659,0.596-5.443-0.335-5.451-4.937
		c-0.019-10.91,0.08-21.822-0.065-32.73c-0.039-2.95,0.976-4.741,3.523-6.187c10.346-5.872,19.296-13.392,26.262-23.117
		c8.139-11.364,12.721-24.105,14.397-37.921C225.533,294.933,225.824,290.559,226.273,285.663z"/>
	<path display="none" fill="#FFFFFF" d="M389.57,285.669c-1.693,0-3.017,0-4.34,0c-11.885-0.002-23.77,0.019-35.655-0.017
		c-4.115-0.013-5.37-1.21-5.373-5.165c-0.022-30.019,0.003-60.037-0.033-90.056c-0.004-3.307,1.152-4.894,4.74-4.885
		c29.773,0.082,59.547,0.077,89.32,0.004c3.301-0.008,4.673,1.251,4.668,4.52c-0.057,33.572,0.205,67.146-0.207,100.713
		c-0.201,16.38-2.587,32.59-8.099,48.162c-9.714,27.441-28.723,45.905-55.547,56.344c-9.271,3.608-19.012,6.043-28.614,8.745
		c-4.691,1.32-6.207-0.14-6.213-5.129c-0.013-10.782,0.069-21.565-0.054-32.346c-0.033-2.91,0.919-4.751,3.492-6.212
		c22.715-12.894,36.035-32.384,40.43-58.058c0.35-2.044,0.713-4.096,0.884-6.159C389.241,292.845,389.356,289.547,389.57,285.669z"
		/>
</g>
</svg>
